<svg xmlns="http://www.w3.org/2000/svg" version="1.1" xmlns:xlink="http://www.w3.org/1999/xlink" xmlns:svgjs="http://svgjs.dev/svgjs" width="100%" height="100%" viewBox="0 0 1000 600"><rect width="1000" height="600" x="0" y="0" fill="#b0e0e6"/><g><circle r="166.66666666666666" cx="367.19005839029944" cy="389.41234822189807" fill="#dbb98f" transform="matrix(0.623368464434668,0,0,0.623368464434668,0,57.25261993048251)"/><path d="M292.3992201994087 464.41235226218333L292.3992201994087 456.38111982776826Q297.47451291837933 454.9868086412379 300.8208597660523 453.8155872445523Q304.1393203899946 452.6443658478668 306.0076973799454 450.5807852918018Q307.8760743698961 448.5172047357368 308.60111618689194 445.0871992168721Q309.3540442276183 441.6571936980073 309.3540442276183 435.77320049084904L309.3540442276183 435.77320049084904L309.3540442276183 327.93717332458823L292.3992201994087 322.44358724965844L292.3992201994087 314.41235481524336L348.5620747928531 314.41235481524336L348.5620747928531 322.44358724965844Q343.4588958501518 323.8378984361889 339.9731178838258 325.0091198328744Q336.51522614123047 326.1803412295599 334.39587313770426 328.24392178562493Q332.27652013417804 330.3075023416899 331.4120471985292 333.7375078605546Q330.51968803914974 337.1675133794194 330.51968803914974 343.0515065865777L330.51968803914974 343.0515065865777L330.51968803914974 381.17197442631874L401.4901274335469 381.17197442631874L401.4901274335469 327.93717332458823L384.5353034053373 322.44358724965844L384.5353034053373 314.41235481524336L440.80970289370407 314.41235481524336L440.80970289370407 322.44358724965844Q435.622865279811 323.8378984361889 432.1928597609462 325.0091198328744Q428.76285424208146 326.1803412295599 426.58772879109404 328.24392178562493Q424.4404895638372 330.3075023416899 423.57601662818837 333.7375078605546Q422.6836574688089 337.1675133794194 422.6836574688089 343.0515065865777L422.6836574688089 343.0515065865777L422.6836574688089 450.97119242403033L441.98092429038957 456.38111982776826L441.98092429038957 464.41235226218333L384.5353034053373 464.41235226218333L384.5353034053373 456.38111982776826Q389.6384823480385 454.9868086412379 392.9848291957115 453.8155872445523Q396.30328981965386 452.6443658478668 398.1716668096046 450.5807852918018Q400.0400437995553 448.5172047357368 400.7650856165511 445.0871992168721Q401.4901274335469 441.6571936980073 401.4901274335469 435.77320049084904L401.4901274335469 435.77320049084904L401.4901274335469 392.93996084063525L330.51968803914974 392.93996084063525L330.51968803914974 450.97119242403033L349.7332961895386 456.38111982776826L349.7332961895386 464.41235226218333L292.3992201994087 464.41235226218333Z " fill="#dc143c" transform="matrix(0.623368464434668,0,0,0.623368464434668,0,57.25261993048251)"/><path d="M617.1900756437094 461.8125211200591L617.1900756437094 454.4718247190654Q621.8289879526708 453.19739826055957 624.8876114530847 452.1268800354147Q627.9207464243286 451.0563618102697 629.6284778787265 449.1702106516811Q631.3362093331243 447.28405949309246 631.9989110915474 444.14897040516803Q632.6871013791406 441.01388131724366 632.6871013791406 435.63580166234897L632.6871013791406 435.63580166234897L632.6871013791406 337.0716593615065L617.1900756437094 332.0504191149934L617.1900756437094 324.70972271399967L668.5239733923252 324.70972271399967L668.5239733923252 332.0504191149934Q663.8595725541936 333.32484557349926 660.673506407929 334.39536379864415Q657.5129287908346 335.46588202378905 655.5758005739056 337.35203318237774Q653.6386723569767 339.23818434096637 652.8485279527031 342.3732734288908Q652.0328950192594 345.50836251681517 652.0328950192594 350.88644217170986L652.0328950192594 350.88644217170986L652.0328950192594 385.7292615472598L716.9012017572072 385.7292615472598L716.9012017572072 337.0716593615065L701.404176021776 332.0504191149934L701.404176021776 324.70972271399967L752.8400278870722 324.70972271399967L752.8400278870722 332.0504191149934Q748.0991614614304 333.32484557349926 744.964072373506 334.39536379864415Q741.8289832855817 335.46588202378905 739.8408780103125 337.35203318237774Q737.8782612642135 339.23818434096637 737.0881168599399 342.3732734288908Q736.2724839264961 345.50836251681517 736.2724839264961 350.88644217170986L736.2724839264961 350.88644217170986L736.2724839264961 449.5270500600627L753.9105461122172 454.4718247190654L753.9105461122172 461.8125211200591L701.404176021776 461.8125211200591L701.404176021776 454.4718247190654Q706.0685768599075 453.19739826055957 709.1272003603215 452.1268800354147Q712.1603353315654 451.0563618102697 713.8680667859633 449.1702106516811Q715.5757982403611 447.28405949309246 716.2384999987842 444.14897040516803Q716.9012017572072 441.01388131724366 716.9012017572072 435.63580166234897L716.9012017572072 435.63580166234897L716.9012017572072 396.48542085704923L652.0328950192594 396.48542085704923L652.0328950192594 449.5270500600627L669.59449161747 454.4718247190654L669.59449161747 461.8125211200591L617.1900756437094 461.8125211200591ZM769.0762209684367 417.36052624737505L769.0762209684367 417.36052624737505Q769.2546406726276 407.5219539877099 772.5171724064026 398.626457307339Q775.7797041401775 389.75644915613833 781.744019965985 383.05296598439753Q787.7083357917923 376.3239942834866 796.1195504179309 372.3732722621185Q804.5562535732397 368.4480387699205 815.1339931788382 368.4480387699205L815.1339931788382 368.4480387699205Q823.7236275091677 368.4480387699205 829.7644089224852 371.07335727444257Q835.8306788649732 373.7241643081347 839.6794467696609 378.6179619087972Q843.5282146743486 383.48627098028953 845.2359461287465 390.342685327051Q846.9436775831443 397.1990996738125 846.7652578789534 405.63580282912125L846.7652578789534 405.63580282912125Q846.663303762273 406.884740758457 846.6123267039327 408.54149515451456Q846.5868381747625 410.19824955057214 846.4848840580821 411.7275613007792L846.4848840580821 411.7275613007792Q846.4084184705719 413.43529275517704 846.229998766381 415.2959553845956L846.229998766381 415.2959553845956L787.7083357917923 415.2959553845956Q787.5299160876014 423.01897972314106 788.9062966627878 428.5245020238863Q790.3081657671441 434.0300243246316 792.678598979965 437.87879222931923Q795.049032192786 441.7275601340069 798.1841212807103 444.0725048176577Q801.3192103686347 446.3919609721383 804.6072306315798 447.6663874306442Q807.8697623653547 448.91532535997993 811.0813170407896 449.32314182670183Q814.3183602453944 449.70546976425356 816.9946558082568 449.70546976425356L816.9946558082568 449.70546976425356Q820.9453778296249 448.7369056557891 825.2529392593747 447.56443331396366L825.2529392593747 447.56443331396366Q829.0252415765519 446.57038067632914 833.5876882980028 445.1430230428026Q838.150135019454 443.715665409276 842.8910014450955 441.93146836736787L842.8910014450955 441.93146836736787L845.9496249455096 449.6290041767432Q841.0303388156772 452.40725385628593 836.7227773859272 454.7012214815965Q832.4152159561775 456.9697005777369 828.4390054056394 458.8048746779853Q824.4373063259309 460.64004877823373 820.7159810670937 462.0419178825902Q816.9946558082568 463.41829845777653 813.2478420202494 464.41235109541105L813.2478420202494 464.41235109541105Q801.7780038936969 464.41235109541105 793.3922777967284 461.1753078908062Q785.0065516997599 457.96375321537147 779.5010293990147 451.9229718020537Q773.9955070982694 445.8567018595659 771.3956771229175 437.11413635421576Q768.7958471475654 428.39705937803575 769.0762209684367 417.36052624737505ZM787.7083357917923 405.9926422375029L787.7083357917923 405.9926422375029Q796.5783439429929 405.8906881208224 802.8485221188419 405.63580282912125Q809.1187002946906 405.3554290082499 813.2988190785898 405.10054371654877Q817.4534493333188 404.82016989567745 819.87485960448 404.59077313314646Q822.296269875641 404.36137637061535 823.3667881007859 404.18295666642456L823.3667881007859 404.18295666642456Q824.8960998509931 404.0045369622337 825.7372213136068 401.8635005119439Q826.6038313053909 399.7224640616541 826.6038313053909 397.37751937800334L826.6038313053909 397.37751937800334Q826.6038313053909 391.28576090634533 824.5392604426113 387.08015359327607Q822.4746895798319 382.87454628020674 818.8808069668453 380.6315557132364Q815.3124128830291 378.38856514626616 810.520569399047 378.2611225004155Q805.7032373858949 378.10819132539484 800.3506462601704 380.09629660066395L800.3506462601704 380.09629660066395Q799.2546395058553 380.4531360090456 797.2410457014159 381.98244775925264Q795.2274518969768 383.48627098028953 793.1628810341972 386.5448944807036Q791.0983101714178 389.5780294519475 789.4925328337006 394.3698729359295Q787.8867554959832 399.1872049490816 787.7083357917923 405.9926422375029ZM862.6955886102764 461.8125211200591L862.6955886102764 454.4718247190654Q867.6403632692793 452.9425129688584 870.5460555946725 451.82101768537325Q873.4517479200658 450.69952240188815 874.981059670273 448.8643483016397Q876.5103714204799 447.02917420139124 876.943676416372 443.9705507009772Q877.402469941434 440.9374157297333 877.402469941434 435.63580166234897L877.402469941434 435.63580166234897L877.402469941434 401.5066611035623Q877.402469941434 396.7657946779205 876.102554953758 393.8346138233571Q874.8026399660821 390.9289214979637 872.6616035157922 389.27216710190606Q870.4950785363324 387.6154127058485 867.7678059151299 386.7233141848944Q865.0405332939274 385.8312156639403 862.1603294977042 385.117536847177L862.1603294977042 385.117536847177L862.1603294977042 378.64345043796726Q868.3540420860425 377.49646662531205 872.2028099907302 376.4259484001671Q876.051577895418 375.3299416458521 879.2376440416824 374.004538129006Q882.4237101879471 372.65364608298984 885.7372189800624 370.8949375702517Q889.0507277721777 369.1617175866838 894.0719680186905 366.6383531988422L894.0719680186905 366.6383531988422L897.6658506316771 368.5245043574308L896.4933782898518 382.87454628020674Q899.5265132610957 381.1668148258089 902.7635564657005 379.2806636672202L902.7635564657005 379.2806636672202Q905.5418061452433 377.67488632950284 908.9827575832089 375.68678105423373Q912.4491975503449 373.7241643081347 915.9411260466509 371.76154756203573L915.9411260466509 371.76154756203573Q916.8332245676052 371.4811737411644 918.3880248469823 370.94591462859194Q919.9683136555295 370.4106555160195 921.9819074599689 369.87539640344704Q923.995501264408 369.34013729087457 926.4169115355692 368.88134376581246Q928.8383218067302 368.4480387699205 931.3361976654016 368.4480387699205L931.3361976654016 368.4480387699205Q937.1730708453586 368.4480387699205 941.2512355125773 369.4675799367252Q945.329400179796 370.5126096327 948.0566728009985 372.475226378799Q950.783945422201 374.437843124898 952.3642342307483 377.1651157461005Q953.9190345101254 379.91787689647316 954.7346674435692 383.40980539277916L954.7346674435692 383.40980539277916Q955.2699265561416 383.1294315719079 957.4109630064313 381.98244775925264Q959.5774879858914 380.8099754174272 962.6106229571353 379.15322102136963Q965.6692464575492 377.49646662531205 969.1611749538554 375.5083613500429Q972.6531034501613 373.5457446039439 975.8901466547661 371.76154756203573L975.8901466547661 371.76154756203573Q976.7822451757204 371.4811737411644 978.3880225134378 370.94591462859194Q979.993799851155 370.4106555160195 982.0583707139347 369.87539640344704Q984.1229415767141 369.34013729087457 986.493374789535 368.88134376581246Q988.8638080023559 368.4480387699205 991.4636379777078 368.4480387699205L991.4636379777078 368.4480387699205Q998.0141899744278 368.4480387699205 1002.3982169916878 369.77344228676657Q1006.8077325381182 371.1243343327828 1009.5350051593207 373.4947675456037Q1012.2622777805232 375.8906892875947 1013.6386583557096 379.2041980797099Q1015.040527460066 382.51770687182506 1015.5757865726384 386.36647477651275Q1016.1110456852109 390.21524268120044 1016.1110456852109 394.57378116929044Q1016.1110456852109 398.90683112821034 1016.2129998018913 403.3928122621509L1016.2129998018913 403.3928122621509L1016.2894653894016 449.5270500600627Q1019.8833480023882 450.80147651856856 1023.0184370903125 451.770040627033L1023.0184370903125 451.770040627033Q1025.694732653175 452.6621391479871 1028.3455396868671 453.4267950230906Q1030.9963467205591 454.19145089819415 1032.4237043540859 454.4718247190654L1032.4237043540859 454.4718247190654L1032.4237043540859 461.8125211200591L983.5876824641416 461.8125211200591L983.5876824641416 454.4718247190654Q987.0031453729373 453.29935237724004 989.3735785857582 452.5856735604768Q991.7440117985791 451.8719947437135 993.273323548786 451.10733886861Q994.777146769823 450.34268299350646 995.6437567616069 449.3486303558719Q996.4848782242209 448.38006624740746 996.8926946909428 446.6213577346694Q997.3005111576645 444.8881377511014 997.3514882160048 442.2373307174093Q997.3769767451749 439.5865236837171 997.3769767451749 435.4573819581581L997.3769767451749 435.4573819581581L997.3769767451749 393.4522858858053Q997.3769767451749 391.64260031472696 996.9436717492829 389.9348688603291Q996.4848782242209 388.25262593510143 995.6947338199473 387.43699300165764L995.6947338199473 387.43699300165764Q994.7006811823126 386.4429403640231 993.5282088404872 385.7292615472598Q992.381225027832 385.01558273049653 990.6734935734341 384.5822777346046Q988.9657621190363 384.1234842095425 986.5953289062154 383.8940874470114Q984.2248956933945 383.6646906844804 980.9113869012792 383.6646906844804L980.9113869012792 383.6646906844804Q977.3175042882929 383.6646906844804 973.7236216753063 384.37836950124364Q970.1552275914898 385.117536847177 966.8672073285447 386.23903213066217Q963.6046755947698 387.3605274141473 960.7754488568869 388.63495387265317Q957.9717106481739 389.9348688603291 955.9071397853945 391.1073412021545L955.9071397853945 391.1073412021545Q956.0855594895854 394.2424302900789 956.1110480187554 397.60691614053434Q956.1620250770957 400.9714019909898 956.1620250770957 404.28491078310503L956.1620250770957 404.28491078310503L956.2639791937761 449.5270500600627Q959.8323732775925 450.80147651856856 962.9674623655169 451.770040627033L962.9674623655169 451.770040627033Q965.6692464575492 452.6621391479871 968.3200534912414 453.4267950230906Q970.9453719957635 454.19145089819415 972.3982181584602 454.4718247190654L972.3982181584602 454.4718247190654L972.3982181584602 461.8125211200591L923.4602421518355 461.8125211200591L923.4602421518355 454.4718247190654Q926.9521706481416 453.29935237724004 929.3226038609625 452.5856735604768Q931.6930370737832 451.8719947437135 933.2223488239904 451.10733886861Q934.7516605741973 450.34268299350646 935.5927820368113 449.3486303558719Q936.4593920285952 448.38006624740746 936.8672084953171 446.6213577346694Q937.2495364328688 444.8881377511014 937.3005134912091 442.2373307174093Q937.3514905495492 439.5865236837171 937.3514905495492 435.4573819581581L937.3514905495492 435.4573819581581L937.3514905495492 393.4522858858053Q937.3514905495492 391.64260031472696 936.8672084953171 389.9348688603291Q936.3574379119148 388.25262593510143 935.6437590951514 387.43699300165764L935.6437590951514 387.43699300165764Q934.6497064575169 386.4429403640231 933.5536997032018 385.7292615472598Q932.4322044197168 385.01558273049653 930.8009385528292 384.5822777346046Q929.195161215112 384.1234842095425 926.9011935898013 383.8940874470114Q924.6327144936608 383.6646906844804 921.3192057015458 383.6646906844804L921.3192057015458 383.6646906844804Q917.5469033843683 383.6646906844804 913.9275322422118 384.37836950124364Q910.2826725708851 385.117536847177 907.0201408371101 386.23903213066217Q903.7576091033352 387.3605274141473 900.9793594237924 388.6859309309934Q898.2011097442496 390.0368229770096 896.2130044689804 391.28576090634533L896.2130044689804 391.28576090634533L896.2130044689804 449.5270500600627L911.7100302044116 454.4718247190654L911.7100302044116 461.8125211200591L862.6955886102764 461.8125211200591ZM1042.287765142921 461.8125211200591L1042.287765142921 454.4718247190654Q1047.9207300895168 453.19739826055957 1051.208750352462 452.1268800354147Q1054.4712820862371 451.0563618102697 1056.1280364822946 449.1702106516811Q1057.7847908783522 447.28405949309246 1058.2435844034144 444.14897040516803Q1058.6768893993064 441.01388131724366 1058.6768893993064 435.63580166234897L1058.6768893993064 435.63580166234897L1058.8553091034971 382.51770687182506L1044.5307557098913 382.51770687182506L1044.5307557098913 372.19485255792773L1058.8553091034971 370.4106555160195L1058.8553091034971 353.38431803038134Q1058.8553091034971 344.4378442916703 1062.4746802456536 337.25007906569726Q1066.1195399169806 330.08780236889436 1072.338741034489 325.11753918072156Q1078.5834306811678 320.14727599254877 1086.943668248966 317.49646895885655Q1095.3293943459346 314.84566192516445 1104.7346616097077 314.84566192516445L1104.7346616097077 314.84566192516445Q1106.2639733599149 314.84566192516445 1108.3285442226943 315.1260357460357Q1110.3931150854737 315.38092103773687 1112.177312127382 315.66129485860813L1112.177312127382 315.66129485860813Q1114.3183485776717 316.01813426698976 1116.3829194404514 316.47692779205187L1116.3829194404514 316.47692779205187L1113.1713647650165 341.557640495447L1105.3718748389608 341.557640495447L1102.6700907469283 331.08185500652894Q1102.2367857510362 329.8074285480231 1100.5290542966384 329.09374973125983Q1098.8213228422408 328.3800709144965 1096.4508896294196 328.12518562279536Q1094.0804564165987 327.8448118019241 1091.3531837953965 327.94676591860457Q1088.6004226450236 328.0232315061149 1086.1535238446925 328.3800709144965Q1083.6811365151912 328.7369103228782 1081.7949853566024 329.3231464937909Q1079.908834198014 329.90938266470357 1079.1951553812505 330.54659589395646L1079.1951553812505 330.54659589395646Q1078.838315972869 331.6171141191014 1078.5834306811678 334.4463408569844Q1078.3030568602965 337.25007906569726 1078.1246371561056 341.0988469703849Q1077.946217451915 344.9731034042427 1077.8442633352342 349.3061533631626Q1077.767797747724 353.6646918512526 1077.7168206893837 357.74285651847134Q1077.6658436310436 361.8210211856901 1077.6658436310436 365.2109955653156Q1077.6658436310436 368.6264584741113 1077.6658436310436 370.4106555160195L1077.6658436310436 370.4106555160195L1102.8485104511192 370.4106555160195L1102.8485104511192 382.51770687182506L1077.6658436310436 382.51770687182506Q1077.6658436310436 390.4956165020717 1077.6658436310436 396.7148176195803Q1077.6658436310436 402.9340187370888 1077.6403551018734 408.23563280447314Q1077.589378043533 413.51175834268736 1077.589378043533 418.35457888500963Q1077.589378043533 423.19739942733185 1077.589378043533 428.47352496554606L1077.589378043533 428.47352496554606Q1077.589378043533 433.77513903293044 1077.767797747724 438.923821925294Q1077.946217451915 444.0725048176577 1078.3030568602965 449.5270500600627L1078.3030568602965 449.5270500600627L1097.3939652087142 454.4718247190654L1097.3939652087142 461.8125211200591L1042.287765142921 461.8125211200591ZM1114.4203026943521 419.1702118184533L1114.4203026943521 419.1702118184533Q1114.4203026943521 407.5219539877099 1118.2690705990399 398.1421752531068Q1122.1178385037276 388.78788504767385 1128.6174134421074 382.1863559926136Q1135.116988380487 375.61031546672336 1143.6301571233064 372.0164328537369Q1152.1433258661255 368.4480387699205 1161.4721275423883 368.4480387699205L1161.4721275423883 368.4480387699205Q1171.5910736229246 368.4480387699205 1179.5689832531712 371.0478687452724Q1187.546892883418 373.64769872062436 1193.0524151841632 379.02577837551905Q1198.5579374849085 384.37836950124364 1201.4126527519616 392.50921030651097Q1204.2928565481848 400.61456258260813 1204.2928565481848 411.6256071840987L1204.2928565481848 411.6256071840987Q1204.2928565481848 423.5542388357135 1200.6989739351984 433.1889028620177Q1197.130579851382 442.823566888322 1190.9368672630435 449.6290041767432Q1184.7686432038752 456.4344414651644 1176.5103597527573 460.10478966566126Q1168.2775648308095 463.7751378661581 1158.8722975670364 463.7751378661581L1158.8722975670364 463.7751378661581Q1149.5434958907736 463.7751378661581 1141.4381436146762 461.04786524495563Q1133.332791338579 458.3205926237531 1127.3174984544314 452.81507032300783Q1121.327694099454 447.28405949309246 1117.861254132318 438.923821925294Q1114.4203026943521 430.53809582832554 1114.4203026943521 419.1702118184533ZM1135.3718736721885 414.7606962720231L1135.3718736721885 414.7606962720231Q1135.3718736721885 423.09544531065137 1136.6717886598644 430.48711876998533Q1137.9717036475404 437.87879222931923 1141.2087468521452 443.30784894255413Q1144.44579005675 448.7369056557891 1149.9003352991551 451.69357503952267Q1155.35488054156 454.65024442325625 1163.7915836968689 454.1149853106838L1163.7915836968689 454.1149853106838Q1169.6029683476554 453.75814590230215 1173.426247723173 450.39366005184667Q1177.2240385695206 447.02917420139124 1179.4160520781506 441.8295142506874Q1181.6335541159508 436.6298542999835 1182.4746755785648 430.2577220074543Q1183.3157970411785 423.9110782440951 1183.3157970411785 417.53894595156584L1183.3157970411785 417.53894595156584Q1183.3157970411785 409.2041969129376 1182.0158820535025 401.8635005119439Q1180.7159670658266 394.5228041109502 1177.5044123903917 389.19570151439575Q1174.267369185787 383.84311038867116 1168.812823943382 380.93741806327785Q1163.332790171807 378.0317257378845 1154.9980411331785 378.4650307337765L1154.9980411331785 378.4650307337765Q1149.0847023657113 378.8473586713282 1145.3378885777042 381.98244775925264Q1141.5655862605267 385.117536847177 1139.3225956935564 390.11328856451996Q1137.079605126586 395.134528811033 1136.2384836639724 401.5576381619025Q1135.3718736721885 407.9552589836019 1135.3718736721885 414.7606962720231ZM1220.9623546254413 461.8125211200591L1220.9623546254413 454.4718247190654Q1225.881640755274 452.9425129688584 1228.7873330806674 451.82101768537325Q1231.718513935231 450.69952240188815 1233.273314214608 448.8643483016397Q1234.8536030231553 447.02917420139124 1235.2869080190471 443.9705507009772Q1235.7457015441094 440.9374157297333 1235.7457015441094 435.63580166234897L1235.7457015441094 435.63580166234897L1235.7457015441094 400.792982286799Q1235.7457015441094 396.05211586115723 1234.3948094980933 393.12093500659375Q1233.0439174520768 390.21524268120044 1230.9028810017871 388.5584882851428Q1228.7618445514972 386.9017338890852 1226.0345719302948 386.0096353681311Q1223.2818107799221 385.117536847177 1220.5035611003793 384.37836950124364L1220.5035611003793 384.37836950124364L1220.5035611003793 377.92977162120405Q1226.5953195720372 376.78278780854873 1230.495064535065 375.7887351709142Q1234.3948094980933 374.7946825332796 1237.5808756443578 373.59672166228415Q1240.7669417906222 372.3732722621185 1244.0804505827375 370.76749492440115Q1247.3939593748528 369.1617175866838 1252.415199621366 366.6383531988422L1252.415199621366 366.6383531988422L1255.983593705182 368.5245043574308L1254.836609892527 383.94506450535164Q1257.512905455389 381.7020739383814 1260.3931092516125 379.3826177839007L1260.3931092516125 379.3826177839007Q1262.8145195227735 377.3945125086316 1265.7966774356773 375.15152194166126Q1268.804323877751 372.90853137469094 1271.862947378165 371.0478687452724L1271.862947378165 371.0478687452724Q1275.6097611661723 369.1617175866838 1279.8408570084116 368.5754814157711Q1284.0464643214812 367.9892452448584 1287.6403469344675 368.0911993615388L1287.6403469344675 368.0911993615388Q1291.8459542475366 368.1676649490492 1295.7711877397348 368.98329788249293L1295.7711877397348 368.98329788249293L1293.4517315852543 400.86944787430934L1283.4092510922283 400.86944787430934L1281.5230999336395 387.9722521142301Q1281.3446802294488 387.71736682252896 1281.0897949377475 387.08015359327607Q1280.8094211168761 386.4429403640231 1280.3251390626438 385.88219272228054Q1279.8408570084116 385.29595655136785 1279.1526667208186 384.7861859679655Q1278.4899649623956 384.30190391373327 1277.5978664414415 384.30190391373327L1277.5978664414415 384.30190391373327Q1274.3608232368365 384.37836950124364 1270.9963373863811 385.1940024346874Q1267.657340065096 386.0096353681311 1264.5987165646816 387.20759623912664Q1261.5400930642677 388.4310456392922 1258.965751618086 389.80742621447854Q1256.365921642734 391.209295318835 1254.5562360716556 392.3562791314902L1254.5562360716556 392.3562791314902L1254.5562360716556 449.5270500600627L1275.7117152828528 454.4718247190654L1275.7117152828528 461.8125211200591L1220.9623546254413 461.8125211200591ZM1307.0626061620967 420.24073004359826L1307.0626061620967 420.24073004359826Q1307.0626061620967 409.9178757297009 1309.5859705499383 401.6341037494129Q1312.0838464086098 393.3503317691248 1316.8502013634215 387.1566191807864L1316.8502013634215 387.1566191807864Q1320.240175743047 382.51770687182506 1324.6751798186476 379.02577837551905Q1329.110183894248 375.5083613500429 1334.0039814949105 373.18890519556226Q1338.8722905664026 370.8694490410816 1344.0719505171064 369.645999640916Q1349.2716104678104 368.4480387699205 1354.2163851268133 368.4480387699205L1354.2163851268133 368.4480387699205Q1359.3140909608367 368.4480387699205 1364.2078885614992 369.212694645024Q1369.0761976329914 369.9518619909574 1373.0269196543595 370.6910293368908L1373.0269196543595 370.6910293368908L1373.0269196543595 352.5686850969376Q1373.0269196543595 349.4335960090132 1373.0269196543595 346.7063233878107Q1373.0269196543595 343.97905076660817 1372.3897064251066 341.65959461212753Q1371.777981725024 339.31464992847674 1370.299647033157 337.40301024071795Q1368.8213123412902 335.46588202378905 1365.762688840876 333.93657027358205L1365.762688840876 333.93657027358205Q1363.978491798968 332.96800616511763 1362.0413635820391 332.5092126400555Q1360.1297238942802 332.0504191149934 1357.427939802248 331.51516000242094L1357.427939802248 331.51516000242094L1357.427939802248 324.990096534871Q1363.341278569715 323.6392044888548 1367.6998170578051 322.5177092053696Q1372.032867016725 321.39621392188445 1375.6777266880517 320.198253050889Q1379.2970978302083 318.97480365072335 1382.6615836806639 317.5984230755371Q1386.0260695311194 316.1965539711806 1389.9513030233172 314.4123569292724L1389.9513030233172 314.4123569292724L1393.3667659321131 316.2985080878611Q1392.9079724070507 321.1158401010132 1392.6530871153495 324.63325712648935Q1392.3727132944784 328.12518562279536 1392.2452706486279 331.2857632398899Q1392.1178280027773 334.47182938615447 1392.0158738860966 337.9382693532904Q1391.9394082985864 341.3792207912562 1391.837454181906 346.22204133357843L1391.837454181906 346.22204133357843L1391.837454181906 445.49986245118424Q1391.837454181906 446.2135412679475 1392.1178280027773 447.28405949309246Q1392.3727132944784 448.38006624740746 1392.8315068195404 449.0937450641707L1392.8315068195404 449.0937450641707Q1393.3667659321131 449.70546976425356 1394.5647268031084 450.47012563935704Q1395.7881762032741 451.23478151446056 1397.2665108951408 451.9484603312238Q1398.7448455870076 452.6621391479871 1400.4525770414054 453.35032943558025Q1402.1348199666331 454.0130311940033 1403.66413171684 454.4718247190654L1403.66413171684 454.4718247190654L1403.66413171684 461.8125211200591L1374.3778117003758 461.8125211200591Q1374.0974378795045 459.92636996147047 1373.9190181753138 457.68337939450015L1373.9190181753138 457.68337939450015Q1373.740598471123 455.899182352592 1373.6641328836126 453.5287491397711Q1373.562178766932 451.15831592695025 1373.562178766932 448.6349515391086L1373.562178766932 448.6349515391086Q1363.800072094777 456.53639558184494 1356.2299789312524 460.02832407815094Q1348.6598857677277 463.52025257445695 1343.8935308129157 463.52025257445695L1343.8935308129157 463.52025257445695Q1337.3684673453658 463.52025257445695 1332.0158762196413 461.6341014158683Q1326.688773623087 459.7479502572797 1322.6106089558682 456.561884111015Q1318.5324442886495 453.4013064939205 1315.5757749049158 449.0937450641707Q1312.6191055211823 444.786183634421 1310.7584428917635 439.994340150439Q1308.872291733175 435.20249666645697 1307.980193212221 430.13027936160364Q1307.0626061620967 425.08355058592053 1307.0626061620967 420.24073004359826ZM1346.0600557923758 449.0937450641707L1346.0600557923758 449.0937450641707Q1348.557931651047 449.0937450641707 1352.1008372056936 448.2016465432166Q1355.6437427603396 447.28405949309246 1359.416045077517 445.90767891790614Q1363.1628588655244 444.50580981354966 1366.7567414785108 442.823566888322Q1370.3251355623272 441.11583543392413 1373.0269196543595 439.5100580962067L1373.0269196543595 439.5100580962067L1373.0269196543595 385.6527959597495Q1368.8977779288007 383.3078512760987 1362.678576811292 381.6510968800411Q1356.4593756937834 379.99434248398353 1349.3735645844909 379.8159227797927L1349.3735645844909 379.8159227797927Q1344.8875834505502 379.7394571922823 1340.7329531958212 381.47267717585027Q1336.552834411922 383.2313856885884 1333.3157912073173 387.20759623912664Q1330.1042365318826 391.209295318835 1328.1671083149536 397.7088702572148Q1326.2554686271947 404.18295666642456 1326.2554686271947 413.61371245936783L1326.2554686271947 413.61371245936783Q1326.2554686271947 421.3877138562535 1327.861245964912 427.93826585297364Q1329.4670233026295 434.4888178496937 1332.168807394662 439.17870721699524Q1334.8451029575242 443.8940851134669 1338.4389855705108 446.4939150888188Q1342.007379654327 449.0937450641707 1346.0600557923758 449.0937450641707Z " fill="#dbb98f" transform="matrix(0.623368464434668,0,0,0.623368464434668,0,57.25261993048251)"/></g></svg>